<?xml version="1.0" encoding="utf-8"?>
<!-- Generator: Adobe Illustrator 16.0.0, SVG Export Plug-In . SVG Version: 6.00 Build 0)  -->
<!DOCTYPE svg PUBLIC "-//W3C//DTD SVG 1.1//EN" "http://www.w3.org/Graphics/SVG/1.1/DTD/svg11.dtd">
<svg version="1.1" xmlns="http://www.w3.org/2000/svg" xmlns:xlink="http://www.w3.org/1999/xlink" x="0px" y="0px" width="32.75px"
	 height="32.75px" viewBox="0 0 32.75 32.75" enable-background="new 0 0 32.75 32.75" xml:space="preserve">
<pattern  x="-586.601" y="1548.54" width="22.263" height="22.263" patternUnits="userSpaceOnUse" id="Nueva_muestra_de_motivo_6" viewBox="0 -22.263 22.263 22.263" overflow="visible">
	<g>
		<polygon fill="none" points="0,-22.263 22.263,-22.263 22.263,0 0,0 		"/>
		<polygon fill="#FFFFFF" points="4.152,-22.263 0,-18.11 0,-16.696 5.566,-22.263 		"/>
		<polygon fill="#FFFFFF" points="9.718,-22.263 0,-12.544 0,-11.13 11.132,-22.263 		"/>
		<polygon fill="#FFFFFF" points="15.283,-22.263 0,-6.979 0,-5.564 16.697,-22.263 		"/>
		<polygon fill="#FFFFFF" points="22.263,-22.263 20.85,-22.263 0,-1.413 0,0 0.002,0 22.263,-22.261 		"/>
		<polygon fill="#FFFFFF" points="22.263,-18.109 4.153,0 5.567,0 22.263,-16.695 		"/>
		<polygon fill="#FFFFFF" points="22.263,-12.544 9.719,0 11.133,0 22.263,-11.13 		"/>
		<polygon fill="#FFFFFF" points="22.263,-6.978 15.285,0 16.699,0 22.263,-5.563 		"/>
		<polygon fill="#FFFFFF" points="22.263,-1.412 20.851,0 22.263,0 		"/>
	</g>
</pattern>
<g id="grid" display="none">
	<g id="WORLD_MAP_1_" display="inline">
		<g id="WORLD_MAP_2_">
			<g id="social_quote">
				<g id="ICON_-_group_1_">
				</g>
				<g id="ICON_-_group">
				</g>
				<g id="thumb">
				</g>
				<g id="thumb_1_">
				</g>
			</g>
		</g>
	</g>
	<rect x="-37.356" y="1.167" display="inline" opacity="0.5" fill="#EEF7FD" width="57.682" height="1512.358"/>
	<polygon display="inline" opacity="0.5" fill="#EEF7FD" points="-44.86,1.167 -110.287,1.167 -110.287,1513.525 -44.86,1513.525 
		20.565,1513.525 20.565,1.167 	"/>
	<g id="HORIZONTAL_BARS_-_More_than_4_items_1_" display="inline">
		<g id="PIE_CHART_-_2_col">
		</g>
	</g>
</g>
<g id="content">
	<g>
		<circle fill="#83CECB" cx="16.727" cy="16.261" r="16.375"/>
		<g>
			<defs>
				<circle id="SVGID_5_" cx="16.727" cy="16.261" r="16.375"/>
			</defs>
			<clipPath id="SVGID_2_">
				<use xlink:href="#SVGID_5_"  overflow="visible"/>
			</clipPath>
		</g>
		<path fill-rule="evenodd" clip-rule="evenodd" fill="#FFFFFF" d="M8.492,13.67c2.178,1.524,4.258,2.986,6.345,4.438
			c1.272,0.885,2.541,0.838,3.801-0.047c2.059-1.444,4.123-2.881,6.189-4.325c0.015,0.013,0.075,0.041,0.075,0.069
			c0.008,2.357,0.029,4.714,0.009,7.07c-0.009,0.868-0.57,1.42-1.431,1.422c-4.525,0.013-9.053,0.012-13.578,0
			c-0.753-0.002-1.388-0.531-1.397-1.233C8.471,18.622,8.492,16.178,8.492,13.67z"/>
		<path fill-rule="evenodd" clip-rule="evenodd" fill="#FFFFFF" d="M24.906,11.257c-0.032,0.718-0.616,1.434-1.375,1.978
			c-1.893,1.36-3.824,2.666-5.738,3.995c-0.722,0.5-1.441,0.511-2.166,0.007c-1.934-1.342-3.893-2.651-5.791-4.042
			c-0.737-0.539-1.381-1.237-1.352-2.28C8.513,9.971,9.029,9.403,9.973,9.4c4.479-0.016,8.957-0.017,13.436-0.003
			C24.382,9.4,24.939,10.02,24.906,11.257z"/>
		<g>
			<path fill="#83CECB" d="M16.173,17.069v-0.834c-1.076-0.122-1.742-0.656-2.041-1.63l1.293-0.253
				c0.188,0.506,0.523,0.806,1.246,0.806c0.523,0,0.881-0.215,0.881-0.581c0-0.459-0.488-0.572-1.162-0.74
				c-0.881-0.206-1.986-0.431-1.986-1.724c0-0.881,0.609-1.687,1.77-1.818v-0.75h0.77v0.759c1.068,0.103,1.527,0.572,1.873,1.331
				l-1.162,0.375c-0.188-0.45-0.523-0.666-1.076-0.666c-0.516,0-0.797,0.225-0.797,0.572c0,0.478,0.674,0.534,1.367,0.703
				c0.881,0.206,1.809,0.534,1.809,1.836c0,0.881-0.75,1.696-2.014,1.799v0.815H16.173z"/>
		</g>
	</g>
</g>
</svg>
