<?xml version="1.0" encoding="utf-8"?>
<!-- Generator: Adobe Illustrator 16.0.0, SVG Export Plug-In . SVG Version: 6.00 Build 0)  -->
<!DOCTYPE svg PUBLIC "-//W3C//DTD SVG 1.1//EN" "http://www.w3.org/Graphics/SVG/1.1/DTD/svg11.dtd">
<svg version="1.1" xmlns="http://www.w3.org/2000/svg" xmlns:xlink="http://www.w3.org/1999/xlink" x="0px" y="0px" width="32.75px"
	 height="32.75px" viewBox="0 0 32.75 32.75" enable-background="new 0 0 32.75 32.75" xml:space="preserve">
<pattern  x="-638.601" y="1548.54" width="22.263" height="22.263" patternUnits="userSpaceOnUse" id="Nueva_muestra_de_motivo_6" viewBox="0 -22.263 22.263 22.263" overflow="visible">
	<g>
		<polygon fill="none" points="0,-22.263 22.263,-22.263 22.263,0 0,0 		"/>
		<polygon fill="#FFFFFF" points="4.152,-22.263 0,-18.11 0,-16.696 5.566,-22.263 		"/>
		<polygon fill="#FFFFFF" points="9.718,-22.263 0,-12.544 0,-11.13 11.132,-22.263 		"/>
		<polygon fill="#FFFFFF" points="15.283,-22.263 0,-6.979 0,-5.564 16.697,-22.263 		"/>
		<polygon fill="#FFFFFF" points="22.263,-22.263 20.85,-22.263 0,-1.413 0,0 0.002,0 22.263,-22.261 		"/>
		<polygon fill="#FFFFFF" points="22.263,-18.109 4.153,0 5.567,0 22.263,-16.695 		"/>
		<polygon fill="#FFFFFF" points="22.263,-12.544 9.719,0 11.133,0 22.263,-11.13 		"/>
		<polygon fill="#FFFFFF" points="22.263,-6.978 15.285,0 16.699,0 22.263,-5.563 		"/>
		<polygon fill="#FFFFFF" points="22.263,-1.412 20.851,0 22.263,0 		"/>
	</g>
</pattern>
<g id="grid" display="none">
	<g id="WORLD_MAP_1_" display="inline">
		<g id="WORLD_MAP_2_">
			<g id="social_quote">
				<g id="ICON_-_group_1_">
				</g>
				<g id="ICON_-_group">
				</g>
				<g id="thumb">
				</g>
				<g id="thumb_1_">
				</g>
			</g>
		</g>
	</g>
	<rect x="-16.382" y="1.167" display="inline" opacity="0.5" fill="#EEF7FD" width="57.682" height="1512.358"/>
	<polygon display="inline" opacity="0.5" fill="#EEF7FD" points="49.479,1.167 -15.946,1.167 -15.946,1513.525 49.479,1513.525 
		114.905,1513.525 114.905,1.167 	"/>
	<g id="HORIZONTAL_BARS_-_More_than_4_items_1_" display="inline">
		<g id="PIE_CHART_-_2_col">
		</g>
	</g>
</g>
<g id="content">
	<g>
		<circle fill="#83CECB" cx="16.375" cy="16.261" r="16.375"/>
		<path fill="#FFFFFF" d="M24.316,17.239c0.066-0.242,0.098-0.495,0.098-0.759c0-0.563-0.139-1.093-0.418-1.582
			c0.022-0.154,0.033-0.312,0.033-0.474c0-0.74-0.22-1.392-0.659-1.957c0.009-1.018-0.304-1.822-0.934-2.412
			c-0.631-0.59-1.464-0.885-2.495-0.885h-1.419c-0.704,0-1.397,0.082-2.083,0.248c-0.687,0.165-1.479,0.404-2.379,0.72
			c-0.852,0.292-1.355,0.439-1.518,0.439H9.378c-0.389,0-0.722,0.137-0.995,0.412c-0.275,0.274-0.414,0.605-0.414,0.995v7.034
			c0,0.389,0.139,0.72,0.414,0.997c0.273,0.274,0.606,0.412,0.995,0.412h3.012c0.264,0.175,0.765,0.743,1.507,1.703
			c0.424,0.55,0.815,1.02,1.175,1.408c0.175,0.183,0.307,0.497,0.39,0.94c0.084,0.443,0.195,0.907,0.336,1.389
			c0.139,0.484,0.366,0.88,0.683,1.188c0.284,0.271,0.614,0.406,0.987,0.406c0.616,0,1.17-0.119,1.66-0.355
			c0.49-0.239,0.865-0.611,1.123-1.118c0.254-0.506,0.383-1.187,0.383-2.044c0-0.682-0.175-1.385-0.525-2.109h1.933
			c0.763,0,1.421-0.279,1.979-0.836c0.556-0.558,0.834-1.213,0.834-1.969C24.854,18.378,24.675,17.78,24.316,17.239L24.316,17.239z
			 M23.211,18.128c0.159,0.338,0.236,0.633,0.236,0.89c0,0.374-0.142,0.702-0.426,0.984c-0.289,0.282-0.615,0.424-0.981,0.424
			h-3.869c0,0.425,0.177,1.008,0.528,1.752c0.351,0.744,0.527,1.332,0.527,1.764c0,0.718-0.117,1.249-0.352,1.594
			c-0.235,0.345-0.704,0.518-1.408,0.518c-0.191-0.192-0.328-0.503-0.416-0.935c-0.089-0.433-0.199-0.893-0.336-1.38
			c-0.135-0.488-0.354-0.889-0.653-1.205c-0.161-0.168-0.443-0.501-0.849-0.999c-0.029-0.038-0.111-0.148-0.252-0.331
			c-0.139-0.184-0.254-0.333-0.345-0.451c-0.093-0.117-0.218-0.272-0.38-0.466c-0.162-0.195-0.309-0.356-0.44-0.484
			c-0.131-0.129-0.272-0.26-0.422-0.392c-0.149-0.131-0.298-0.23-0.44-0.296c-0.144-0.065-0.272-0.1-0.391-0.1h-0.352v-7.034h0.352
			c0.095,0,0.213-0.011,0.348-0.033c0.135-0.021,0.254-0.045,0.36-0.07c0.108-0.026,0.245-0.066,0.419-0.122
			c0.172-0.054,0.3-0.097,0.385-0.126c0.085-0.029,0.215-0.075,0.391-0.137c0.176-0.063,0.281-0.101,0.317-0.116
			c1.548-0.535,2.802-0.801,3.762-0.801h1.328c1.407,0,2.11,0.61,2.11,1.835c0,0.189-0.016,0.395-0.054,0.615
			c0.22,0.117,0.393,0.309,0.521,0.577c0.128,0.267,0.194,0.537,0.194,0.807c0,0.271-0.067,0.524-0.199,0.759
			c0.389,0.365,0.583,0.802,0.583,1.308c0,0.183-0.038,0.386-0.11,0.61c-0.074,0.224-0.166,0.396-0.273,0.521
			C22.856,17.62,23.053,17.792,23.211,18.128L23.211,18.128z M8.672,18.103"/>
		<circle fill="none" cx="16.375" cy="16.261" r="16.375"/>
		<circle fill="#83CECB" cx="10.098" cy="13.025" r="1.262"/>
	</g>
</g>
</svg>
