<?xml version="1.0" encoding="utf-8"?>
<!-- Generator: Adobe Illustrator 16.0.0, SVG Export Plug-In . SVG Version: 6.00 Build 0)  -->
<!DOCTYPE svg PUBLIC "-//W3C//DTD SVG 1.1//EN" "http://www.w3.org/Graphics/SVG/1.1/DTD/svg11.dtd">
<svg version="1.1" xmlns="http://www.w3.org/2000/svg" xmlns:xlink="http://www.w3.org/1999/xlink" x="0px" y="0px" width="32.75px"
	 height="32.75px" viewBox="0 0 32.75 32.75" enable-background="new 0 0 32.75 32.75" xml:space="preserve">
<pattern  x="-337.601" y="1548.54" width="22.263" height="22.263" patternUnits="userSpaceOnUse" id="Nueva_muestra_de_motivo_6" viewBox="0 -22.263 22.263 22.263" overflow="visible">
	<g>
		<polygon fill="none" points="0,-22.263 22.263,-22.263 22.263,0 0,0 		"/>
		<polygon fill="#FFFFFF" points="4.152,-22.263 0,-18.11 0,-16.696 5.566,-22.263 		"/>
		<polygon fill="#FFFFFF" points="9.718,-22.263 0,-12.544 0,-11.13 11.132,-22.263 		"/>
		<polygon fill="#FFFFFF" points="15.283,-22.263 0,-6.979 0,-5.564 16.697,-22.263 		"/>
		<polygon fill="#FFFFFF" points="22.263,-22.263 20.85,-22.263 0,-1.413 0,0 0.002,0 22.263,-22.261 		"/>
		<polygon fill="#FFFFFF" points="22.263,-18.109 4.153,0 5.567,0 22.263,-16.695 		"/>
		<polygon fill="#FFFFFF" points="22.263,-12.544 9.719,0 11.133,0 22.263,-11.13 		"/>
		<polygon fill="#FFFFFF" points="22.263,-6.978 15.285,0 16.699,0 22.263,-5.563 		"/>
		<polygon fill="#FFFFFF" points="22.263,-1.412 20.851,0 22.263,0 		"/>
	</g>
</pattern>
<g id="grid" display="none">
	<g id="WORLD_MAP_1_" display="inline">
		<g id="WORLD_MAP_2_">
			<g id="social_quote">
				<g id="ICON_-_group_1_">
				</g>
				<g id="ICON_-_group">
				</g>
				<g id="thumb">
				</g>
				<g id="thumb_1_">
				</g>
			</g>
		</g>
	</g>
	<rect x="-7.868" y="1.167" display="inline" opacity="0.5" fill="#EEF7FD" width="57.682" height="1512.358"/>
	<polygon display="inline" opacity="0.5" fill="#EEF7FD" points="57.798,1.167 -7.628,1.167 -7.628,1513.525 57.798,1513.525 
		123.224,1513.525 123.224,1.167 	"/>
	<g id="HORIZONTAL_BARS_-_More_than_4_items_1_" display="inline">
		<g id="PIE_CHART_-_2_col">
		</g>
	</g>
</g>
<g id="content">
	<g>
		<circle fill="#83CECB" cx="16.375" cy="16.261" r="16.375"/>
		<path fill-rule="evenodd" clip-rule="evenodd" fill="#FFFFFF" d="M17.005,9.331c3.435,0,6.87,0,10.306,0
			c0.81,0.001,1.027,0.219,1.027,1.029c0.001,4.358,0.001,8.717,0,13.074c0,0.8-0.199,1.015-0.986,1.015
			c-6.904,0.003-13.809,0.003-20.713,0c-0.761,0-0.977-0.225-0.977-0.973c0-4.392,0-8.784,0-13.176c0-0.733,0.239-0.969,0.985-0.969
			C10.101,9.331,13.554,9.331,17.005,9.331z M10.217,10.849c-0.226,1.849-1.244,2.852-3.06,3.048c0,2.007,0,3.983,0,5.993
			c1.833,0.204,2.867,1.22,3.058,3.04c4.551,0,9.065,0,13.576,0c0.208-1.861,1.261-2.836,3.034-3.048c0-2.027,0-4.016,0-6.014
			c-0.854-0.046-1.555-0.336-2.14-0.922c-0.583-0.584-0.814-1.312-0.894-2.098C19.24,10.849,14.747,10.849,10.217,10.849z"/>
		<path fill="#FFFFFF" d="M15.474,21.138h3.71c0.295-0.027,0.482-0.133,0.617-0.322c0.08-0.134,0.106-0.293,0.132-0.508v-2.974
			c-0.026-0.563-0.32-0.831-0.883-0.831h-0.04l-0.026,0.027c-0.456,0.455-1.045,0.696-1.715,0.723
			c-0.669-0.026-1.231-0.268-1.714-0.723l-0.027-0.027h-0.054c-0.562,0-0.856,0.268-0.883,0.831v2.974v0.01
			c0,0.209,0.055,0.367,0.133,0.499C14.858,21.057,15.127,21.138,15.474,21.138"/>
		<path fill="#FFFFFF" d="M17.2,16.283c1.004,0,1.823-0.818,1.823-1.824c0-1.005-0.819-1.825-1.823-1.825
			c-1.005,0-1.825,0.82-1.825,1.825C15.375,15.465,16.195,16.283,17.2,16.283"/>
	</g>
</g>
</svg>
