<?xml version="1.0" encoding="utf-8"?>
<!-- Generator: Adobe Illustrator 16.0.0, SVG Export Plug-In . SVG Version: 6.00 Build 0)  -->
<!DOCTYPE svg PUBLIC "-//W3C//DTD SVG 1.1//EN" "http://www.w3.org/Graphics/SVG/1.1/DTD/svg11.dtd">
<svg version="1.1" xmlns="http://www.w3.org/2000/svg" xmlns:xlink="http://www.w3.org/1999/xlink" x="0px" y="0px" width="32.75px"
	 height="32.75px" viewBox="0 0 32.75 32.75" enable-background="new 0 0 32.75 32.75" xml:space="preserve">
<pattern  x="-536.601" y="1548.54" width="22.263" height="22.263" patternUnits="userSpaceOnUse" id="Nueva_muestra_de_motivo_6" viewBox="0 -22.263 22.263 22.263" overflow="visible">
	<g>
		<polygon fill="none" points="0,-22.263 22.263,-22.263 22.263,0 0,0 		"/>
		<polygon fill="#FFFFFF" points="4.152,-22.263 0,-18.11 0,-16.696 5.566,-22.263 		"/>
		<polygon fill="#FFFFFF" points="9.718,-22.263 0,-12.544 0,-11.13 11.132,-22.263 		"/>
		<polygon fill="#FFFFFF" points="15.283,-22.263 0,-6.979 0,-5.564 16.697,-22.263 		"/>
		<polygon fill="#FFFFFF" points="22.263,-22.263 20.85,-22.263 0,-1.413 0,0 0.002,0 22.263,-22.261 		"/>
		<polygon fill="#FFFFFF" points="22.263,-18.109 4.153,0 5.567,0 22.263,-16.695 		"/>
		<polygon fill="#FFFFFF" points="22.263,-12.544 9.719,0 11.133,0 22.263,-11.13 		"/>
		<polygon fill="#FFFFFF" points="22.263,-6.978 15.285,0 16.699,0 22.263,-5.563 		"/>
		<polygon fill="#FFFFFF" points="22.263,-1.412 20.851,0 22.263,0 		"/>
	</g>
</pattern>
<g id="grid" display="none">
	<g id="WORLD_MAP_1_" display="inline">
		<g id="WORLD_MAP_2_">
			<g id="social_quote">
				<g id="ICON_-_group_1_">
				</g>
				<g id="ICON_-_group">
				</g>
				<g id="thumb">
				</g>
				<g id="thumb_1_">
				</g>
			</g>
		</g>
	</g>
	<rect x="12.644" y="1.167" display="inline" opacity="0.5" fill="#EEF7FD" width="57.682" height="1512.358"/>
	<polygon display="inline" opacity="0.5" fill="#EEF7FD" points="5.14,1.167 -60.287,1.167 -60.287,1513.525 5.14,1513.525 
		70.565,1513.525 70.565,1.167 	"/>
	<g id="HORIZONTAL_BARS_-_More_than_4_items_1_" display="inline">
		<g id="PIE_CHART_-_2_col">
		</g>
	</g>
</g>
<g id="content">
	<g>
		<circle fill="#83CECB" cx="16.45" cy="16.432" r="16.375"/>
		<path fill="#83CECB" stroke="#FFFFFF" stroke-width="0.75" stroke-miterlimit="10" d="M19.528,23.007h6.283
			c0.499-0.045,0.816-0.226,1.044-0.544c0.136-0.227,0.181-0.498,0.226-0.862v-5.035c-0.045-0.953-0.544-1.407-1.497-1.407h-0.067
			l-0.045,0.046c-0.771,0.77-1.77,1.179-2.904,1.224c-1.134-0.045-2.086-0.454-2.903-1.224l-0.045-0.046h-0.091
			c-0.952,0-1.451,0.454-1.497,1.407v5.035v0.018c0.002,0.354,0.093,0.621,0.227,0.844C18.485,22.872,18.939,23.007,19.528,23.007"
			/>
		<rect x="19.931" y="19.559" fill="#FFFFFF" width="5.25" height="5.25"/>
		<path fill="#83CECB" stroke="#FFFFFF" stroke-width="0.75" stroke-miterlimit="10" d="M22.557,14.786
			c1.701,0,3.089-1.387,3.089-3.089c0-1.702-1.388-3.09-3.089-3.09s-3.09,1.389-3.09,3.09
			C19.467,13.399,20.855,14.786,22.557,14.786"/>
		<g>
			<defs>
				<circle id="SVGID_3_" cx="16.45" cy="16.432" r="16.375"/>
			</defs>
			<clipPath id="SVGID_2_">
				<use xlink:href="#SVGID_3_"  overflow="visible"/>
			</clipPath>
		</g>
		<path fill="#FFFFFF" d="M8.517,23.007H14.8c0.499-0.045,0.816-0.226,1.044-0.544c0.136-0.227,0.181-0.498,0.226-0.862v-5.035
			c-0.045-0.953-0.544-1.407-1.497-1.407h-0.067l-0.045,0.046c-0.771,0.77-1.77,1.179-2.904,1.224
			c-1.134-0.045-2.086-0.454-2.903-1.224l-0.045-0.046H8.517c-0.952,0-1.451,0.454-1.497,1.407v5.035v0.018
			c0.002,0.354,0.093,0.621,0.227,0.844C7.474,22.872,7.928,23.007,8.517,23.007"/>
		<rect x="9.034" y="19.559" fill="#83CECB" stroke="#FFFFFF" stroke-miterlimit="10" width="5.25" height="5.25"/>
		<path fill="#FFFFFF" d="M11.438,14.786c1.701,0,3.089-1.387,3.089-3.089c0-1.702-1.388-3.09-3.089-3.09s-3.09,1.389-3.09,3.09
			C8.349,13.399,9.737,14.786,11.438,14.786"/>
	</g>
</g>
</svg>
