<?xml version="1.0" encoding="utf-8"?>
<!-- Generator: Adobe Illustrator 16.0.0, SVG Export Plug-In . SVG Version: 6.00 Build 0)  -->
<!DOCTYPE svg PUBLIC "-//W3C//DTD SVG 1.1//EN" "http://www.w3.org/Graphics/SVG/1.1/DTD/svg11.dtd">
<svg version="1.1" xmlns="http://www.w3.org/2000/svg" xmlns:xlink="http://www.w3.org/1999/xlink" x="0px" y="0px" width="32.75px"
	 height="32.75px" viewBox="0 0 32.75 32.75" enable-background="new 0 0 32.75 32.75" xml:space="preserve">
<pattern  x="-286.601" y="1548.54" width="22.263" height="22.263" patternUnits="userSpaceOnUse" id="Nueva_muestra_de_motivo_6" viewBox="0 -22.263 22.263 22.263" overflow="visible">
	<g>
		<polygon fill="none" points="0,-22.263 22.263,-22.263 22.263,0 0,0 		"/>
		<polygon fill="#FFFFFF" points="4.152,-22.263 0,-18.11 0,-16.696 5.566,-22.263 		"/>
		<polygon fill="#FFFFFF" points="9.718,-22.263 0,-12.544 0,-11.13 11.132,-22.263 		"/>
		<polygon fill="#FFFFFF" points="15.283,-22.263 0,-6.979 0,-5.564 16.697,-22.263 		"/>
		<polygon fill="#FFFFFF" points="22.263,-22.263 20.85,-22.263 0,-1.413 0,0 0.002,0 22.263,-22.261 		"/>
		<polygon fill="#FFFFFF" points="22.263,-18.109 4.153,0 5.567,0 22.263,-16.695 		"/>
		<polygon fill="#FFFFFF" points="22.263,-12.544 9.719,0 11.133,0 22.263,-11.13 		"/>
		<polygon fill="#FFFFFF" points="22.263,-6.978 15.285,0 16.699,0 22.263,-5.563 		"/>
		<polygon fill="#FFFFFF" points="22.263,-1.412 20.851,0 22.263,0 		"/>
	</g>
</pattern>
<g id="grid" display="none">
	<g id="WORLD_MAP_1_" display="inline">
		<g id="WORLD_MAP_2_">
			<g id="social_quote">
				<rect x="-248.953" y="0.858" fill="#00B6BE" width="277.202" height="137.363"/>
				<g id="ICON_-_group_1_">
				</g>
				<g id="ICON_-_group">
				</g>
				<g id="thumb">
				</g>
				<g id="thumb_1_">
				</g>
			</g>
		</g>
	</g>
	<rect x="-29.842" y="1.167" display="inline" opacity="0.5" fill="#EEF7FD" width="57.682" height="1512.358"/>
	<polygon display="inline" opacity="0.5" fill="#EEF7FD" points="-37.542,1.167 -102.969,1.167 -102.969,1513.525 -37.542,1513.525 
		27.883,1513.525 27.883,1.167 	"/>
	<g id="HORIZONTAL_BARS_-_More_than_4_items_1_" display="inline">
		<g id="PIE_CHART_-_2_col">
		</g>
	</g>
</g>
<g id="content">
	<g>
		<circle fill="#00B6BE" cx="16.375" cy="16.375" r="16.375"/>
		<g>
			<circle fill="#FFFFFF" cx="16.545" cy="16.501" r="7.5"/>
			<circle fill="#00B6BE" cx="12.91" cy="15.427" r="0.833"/>
			<circle fill="#00B6BE" cx="20.245" cy="15.427" r="0.833"/>
			<path fill="none" stroke="#00B6BE" stroke-miterlimit="10" d="M20.077,17.429c0,1.933-1.567,3.5-3.5,3.5s-3.5-1.567-3.5-3.5"/>
		</g>
	</g>
</g>
</svg>
