<?xml version="1.0" encoding="utf-8"?>
<!-- Generator: Adobe Illustrator 16.0.0, SVG Export Plug-In . SVG Version: 6.00 Build 0)  -->
<!DOCTYPE svg PUBLIC "-//W3C//DTD SVG 1.1//EN" "http://www.w3.org/Graphics/SVG/1.1/DTD/svg11.dtd">
<svg version="1.1" xmlns="http://www.w3.org/2000/svg" xmlns:xlink="http://www.w3.org/1999/xlink" x="0px" y="0px" width="32.75px"
	 height="32.75px" viewBox="0 0 32.75 32.75" enable-background="new 0 0 32.75 32.75" xml:space="preserve">
<pattern  x="-434.601" y="1548.54" width="22.263" height="22.263" patternUnits="userSpaceOnUse" id="Nueva_muestra_de_motivo_6" viewBox="0 -22.263 22.263 22.263" overflow="visible">
	<g>
		<polygon fill="none" points="0,-22.263 22.263,-22.263 22.263,0 0,0 		"/>
		<polygon fill="#FFFFFF" points="4.152,-22.263 0,-18.11 0,-16.696 5.566,-22.263 		"/>
		<polygon fill="#FFFFFF" points="9.718,-22.263 0,-12.544 0,-11.13 11.132,-22.263 		"/>
		<polygon fill="#FFFFFF" points="15.283,-22.263 0,-6.979 0,-5.564 16.697,-22.263 		"/>
		<polygon fill="#FFFFFF" points="22.263,-22.263 20.85,-22.263 0,-1.413 0,0 0.002,0 22.263,-22.261 		"/>
		<polygon fill="#FFFFFF" points="22.263,-18.109 4.153,0 5.567,0 22.263,-16.695 		"/>
		<polygon fill="#FFFFFF" points="22.263,-12.544 9.719,0 11.133,0 22.263,-11.13 		"/>
		<polygon fill="#FFFFFF" points="22.263,-6.978 15.285,0 16.699,0 22.263,-5.563 		"/>
		<polygon fill="#FFFFFF" points="22.263,-1.412 20.851,0 22.263,0 		"/>
	</g>
</pattern>
<g id="grid" display="none">
	<g id="WORLD_MAP_1_" display="inline">
		<g id="WORLD_MAP_2_">
			<g id="social_quote">
				<g id="ICON_-_group_1_">
				</g>
				<g id="ICON_-_group">
				</g>
				<g id="thumb">
				</g>
				<g id="thumb_1_">
				</g>
			</g>
		</g>
	</g>
	<rect x="-31.698" y="1.167" display="inline" opacity="0.5" fill="#EEF7FD" width="57.682" height="1512.358"/>
	<polygon display="inline" opacity="0.5" fill="#EEF7FD" points="-39.202,1.167 -104.628,1.167 -104.628,1513.525 -39.202,1513.525 
		26.224,1513.525 26.224,1.167 	"/>
	<g id="HORIZONTAL_BARS_-_More_than_4_items_1_" display="inline">
		<g id="PIE_CHART_-_2_col">
		</g>
	</g>
</g>
<g id="content">
	<g>
		<circle fill="#83CECB" cx="16.375" cy="16.432" r="16.375"/>
		<path fill="#FFFFFF" d="M25.023,15.126c0,0.078,0,0.156,0,0.234c-0.011,0.07-0.017,0.142-0.032,0.211
			c-0.072,0.358-0.111,0.727-0.227,1.071c-0.368,1.115-1.076,2.015-1.905,2.819c-1.875,1.822-3.763,3.63-5.649,5.443
			c-0.347,0.334-0.623,0.336-0.967,0.004c-1.666-1.606-3.332-3.211-4.995-4.821c-0.517-0.498-1.049-0.977-1.493-1.547
			c-0.937-1.204-1.466-2.513-1.266-4.08c0.213-1.7,1.369-3.019,3.045-3.373c0.256-0.054,0.512-0.091,0.768-0.135
			c0.311,0,0.623,0,0.934,0c0.082,0.017,0.161,0.036,0.24,0.051c0.754,0.14,1.42,0.472,2.025,0.927
			c0.422,0.315,0.826,0.651,1.248,0.984c0.018-0.017,0.053-0.051,0.092-0.083c0.752-0.689,1.545-1.322,2.525-1.663
			c0.275-0.095,0.565-0.145,0.848-0.215c0.312,0,0.625,0,0.937,0c0.253,0.044,0.512,0.076,0.764,0.136
			c1.552,0.37,2.563,1.307,2.94,2.873C24.947,14.341,24.97,14.738,25.023,15.126z"/>
		<polyline fill="none" stroke="#83CECB" stroke-linecap="round" stroke-miterlimit="10" points="8.324,17.339 11.313,14.35 
			13.344,19.489 15.017,17.339 18.168,17.339 		"/>
		
			<line fill="none" stroke="#FFFFFF" stroke-linecap="round" stroke-miterlimit="10" x1="5.175" y1="17.339" x2="8.324" y2="17.339"/>
	</g>
</g>
</svg>
