<?xml version="1.0" encoding="utf-8"?>
<!-- Generator: Adobe Illustrator 16.0.0, SVG Export Plug-In . SVG Version: 6.00 Build 0)  -->
<!DOCTYPE svg PUBLIC "-//W3C//DTD SVG 1.1//EN" "http://www.w3.org/Graphics/SVG/1.1/DTD/svg11.dtd">
<svg version="1.1" xmlns="http://www.w3.org/2000/svg" xmlns:xlink="http://www.w3.org/1999/xlink" x="0px" y="0px" width="32.75px"
	 height="32.75px" viewBox="0 0 32.75 32.75" enable-background="new 0 0 32.75 32.75" xml:space="preserve">
<pattern  x="-383.601" y="1548.54" width="22.263" height="22.263" patternUnits="userSpaceOnUse" id="Nueva_muestra_de_motivo_6" viewBox="0 -22.263 22.263 22.263" overflow="visible">
	<g>
		<polygon fill="none" points="0,-22.263 22.263,-22.263 22.263,0 0,0 		"/>
		<polygon fill="#FFFFFF" points="4.152,-22.263 0,-18.11 0,-16.696 5.566,-22.263 		"/>
		<polygon fill="#FFFFFF" points="9.718,-22.263 0,-12.544 0,-11.13 11.132,-22.263 		"/>
		<polygon fill="#FFFFFF" points="15.283,-22.263 0,-6.979 0,-5.564 16.697,-22.263 		"/>
		<polygon fill="#FFFFFF" points="22.263,-22.263 20.85,-22.263 0,-1.413 0,0 0.002,0 22.263,-22.261 		"/>
		<polygon fill="#FFFFFF" points="22.263,-18.109 4.153,0 5.567,0 22.263,-16.695 		"/>
		<polygon fill="#FFFFFF" points="22.263,-12.544 9.719,0 11.133,0 22.263,-11.13 		"/>
		<polygon fill="#FFFFFF" points="22.263,-6.978 15.285,0 16.699,0 22.263,-5.563 		"/>
		<polygon fill="#FFFFFF" points="22.263,-1.412 20.851,0 22.263,0 		"/>
	</g>
</pattern>
<g id="grid" display="none">
	<g id="WORLD_MAP_1_" display="inline">
		<g id="WORLD_MAP_2_">
			<g id="social_quote">
				<g id="ICON_-_group_1_">
				</g>
				<g id="ICON_-_group">
				</g>
				<g id="thumb">
				</g>
				<g id="thumb_1_">
				</g>
			</g>
		</g>
	</g>
	<rect x="-53.868" y="1.167" display="inline" opacity="0.5" fill="#EEF7FD" width="57.682" height="1512.358"/>
	<rect x="19.302" y="1.167" display="inline" opacity="0.5" fill="#EEF7FD" width="57.682" height="1512.358"/>
	<polygon display="inline" opacity="0.5" fill="#EEF7FD" points="11.798,1.167 -53.628,1.167 -53.628,1513.525 11.798,1513.525 
		77.224,1513.525 77.224,1.167 	"/>
	<g id="HORIZONTAL_BARS_-_More_than_4_items_1_" display="inline">
		<g id="PIE_CHART_-_2_col">
		</g>
	</g>
</g>
<g id="content">
	<g>
		<circle fill="#83CECB" cx="16.375" cy="16.261" r="16.375"/>
		<path fill="#FFFFFF" d="M22.178,21.533h5.625c0.454-0.045,0.771-0.226,0.999-0.544c0.135-0.227,0.227-0.498,0.227-0.861v-3.312
			c-0.044-0.869-0.504-1.363-1.38-1.363c-0.038,0-0.077,0-0.117,0.002h-0.137c-0.815,0.817-1.769,1.224-2.948,1.224
			c-0.862,0-1.633-0.226-2.269-0.68V21.533z"/>
		<path fill="#FFFFFF" d="M24.388,15.858c1.562,0,2.835-1.273,2.835-2.834s-1.273-2.834-2.835-2.834s-2.835,1.273-2.835,2.834
			S22.826,15.858,24.388,15.858"/>
		<path fill="#FFFFFF" d="M11.201,21.533H5.576c-0.454-0.045-0.771-0.226-0.999-0.544c-0.135-0.227-0.227-0.498-0.227-0.861v-3.312
			c0.044-0.869,0.504-1.363,1.38-1.363c0.038,0,0.077,0,0.117,0.002h0.137c0.815,0.817,1.769,1.224,2.948,1.224
			c0.862,0,1.633-0.226,2.269-0.68V21.533z"/>
		<path fill="#FFFFFF" d="M8.991,15.858c-1.562,0-2.835-1.273-2.835-2.834s1.273-2.834,2.835-2.834s2.835,1.273,2.835,2.834
			S10.553,15.858,8.991,15.858"/>
		<path fill="#FFFFFF" d="M13.672,23.461h6.283c0.499-0.045,0.816-0.226,1.044-0.544c0.136-0.227,0.181-0.498,0.226-0.862V17.02
			c-0.045-0.953-0.544-1.407-1.497-1.407H19.66l-0.045,0.046c-0.771,0.77-1.77,1.179-2.904,1.224
			c-1.134-0.045-2.086-0.454-2.903-1.224l-0.045-0.046h-0.091c-0.952,0-1.451,0.454-1.497,1.407v5.035v0.018
			c0.002,0.354,0.093,0.621,0.227,0.844C12.629,23.325,13.083,23.461,13.672,23.461"/>
		<path fill="#FFFFFF" d="M16.682,15.84c1.701,0,3.089-1.387,3.089-3.089c0-1.702-1.388-3.09-3.089-3.09s-3.09,1.389-3.09,3.09
			C13.592,14.453,14.98,15.84,16.682,15.84"/>
	</g>
</g>
</svg>
